<svg xmlns="http://www.w3.org/2000/svg" width="128" height="128" viewBox="0 0 128 128">
  <defs>
    <linearGradient id="g" x1="0%" y1="0%" x2="100%" y2="100%">
      <stop offset="0%" stop-color="#0ea5e9"/>
      <stop offset="100%" stop-color="#7c3aed"/>
    </linearGradient>
  </defs>
  <rect x="8" y="8" width="112" height="112" rx="24" fill="url(#g)"/>
  <g fill="#fff" transform="translate(24,28)">
    <rect x="0" y="8" width="12" height="56" rx="6"/>
    <rect x="20" y="8" width="12" height="56" rx="6"/>
    <path d="M60 8a6 6 0 0 1 6 6v40a6 6 0 1 1-12 0V38l-8 9a6 6 0 0 1-9-8l13-16a6 6 0 0 1 4-2h6z"/>
  </g>
</svg>



